<?xml version="1.0" standalone="no"?>
<!DOCTYPE svg PUBLIC "-//W3C//DTD SVG 20010904//EN"
 "http://www.w3.org/TR/2001/REC-SVG-20010904/DTD/svg10.dtd">
<svg version="1.0" xmlns="http://www.w3.org/2000/svg"
 width="120.000000pt" height="32.000000pt" viewBox="0 0 120.000000 32.000000"
 preserveAspectRatio="xMidYMid meet">

<g transform="translate(0.000000,32.000000) scale(0.100000,-0.100000)"
fill="#000000" stroke="none">
<path d="M115 288 c-2 -7 -25 -69 -50 -137 -25 -69 -45 -126 -45 -128 0 -2 11
-3 24 -3 18 0 27 8 35 30 9 28 13 30 65 30 51 0 55 -2 65 -30 7 -23 16 -30 35
-30 l25 0 -35 97 c-20 54 -41 112 -47 128 -14 41 -26 55 -49 55 -10 0 -21 -6
-23 -12z m59 -145 c7 -21 4 -23 -29 -23 -34 0 -37 2 -31 25 3 13 11 37 17 52
l11 28 13 -30 c7 -16 16 -40 19 -52z"/>
<path d="M430 245 c0 -52 -1 -55 -19 -45 -61 32 -131 -16 -131 -89 0 -58 31
-91 85 -91 24 0 47 5 51 11 4 8 9 8 17 0 6 -6 19 -11 29 -11 16 0 18 12 18
140 l0 140 -25 0 c-24 0 -25 -3 -25 -55z m-16 -91 c19 -18 21 -65 4 -82 -15
-15 -61 -15 -76 0 -7 7 -12 26 -12 43 0 17 5 36 12 43 17 17 54 15 72 -4z"/>
<path d="M870 284 c-11 -12 -10 -18 3 -32 16 -15 18 -15 34 0 13 14 14 20 3
32 -7 9 -16 16 -20 16 -4 0 -13 -7 -20 -16z"/>
<path d="M530 115 c0 -88 1 -95 20 -95 17 0 20 7 20 48 0 68 9 91 37 98 34 9
43 -8 43 -83 0 -60 1 -63 25 -63 24 0 25 2 25 63 0 65 11 87 42 87 25 0 38
-31 38 -94 0 -49 2 -56 20 -56 18 0 20 7 20 75 0 62 -4 79 -20 95 -24 24 -72
26 -94 4 -15 -14 -17 -14 -32 0 -18 18 -56 21 -85 6 -13 -7 -19 -7 -19 0 0 5
-9 10 -20 10 -19 0 -20 -7 -20 -95z"/>
<path d="M870 115 c0 -88 1 -95 20 -95 19 0 20 7 20 95 0 88 -1 95 -20 95 -19
0 -20 -7 -20 -95z"/>
<path d="M967 203 c-4 -3 -7 -46 -7 -95 0 -87 0 -88 25 -88 24 0 25 2 25 63 0
68 10 87 47 87 30 0 43 -28 43 -94 0 -49 2 -56 20 -56 18 0 20 7 20 73 0 87
-16 117 -61 117 -17 0 -39 -5 -49 -10 -13 -7 -21 -7 -25 0 -7 11 -28 13 -38 3z"/>
</g>
</svg>
